<?xml version="1.0" encoding="utf-8"?>
<!-- Generator: Adobe Illustrator 15.0.0, SVG Export Plug-In . SVG Version: 6.00 Build 0)  -->
<!DOCTYPE svg PUBLIC "-//W3C//DTD SVG 1.1//EN" "http://www.w3.org/Graphics/SVG/1.1/DTD/svg11.dtd">
<svg version="1.1" id="Layer_1" xmlns="http://www.w3.org/2000/svg" xmlns:xlink="http://www.w3.org/1999/xlink" x="0px" y="0px"
	 width="779.527px" height="574.092px" viewBox="31.181 24.765 779.527 574.092"
	 enable-background="new 31.181 24.765 779.527 574.092" xml:space="preserve">
<g>
	<g>
		<path fill="#007DA9" d="M43.011,595.912c0,0.361-0.084,0.67-0.263,0.943c-0.18,0.258-0.489,0.469-0.938,0.635
			c-0.447,0.154-1.033,0.281-1.771,0.398c-0.735,0.109-1.659,0.168-2.774,0.168c-1.067,0-1.982-0.059-2.74-0.168
			c-0.758-0.117-1.364-0.244-1.805-0.398c-0.453-0.166-0.765-0.377-0.937-0.635c-0.18-0.273-0.262-0.582-0.262-0.943v-83.031
			c0-0.344,0.096-0.656,0.295-0.926c0.2-0.271,0.53-0.48,0.999-0.641c0.472-0.152,1.067-0.289,1.812-0.4
			c0.729-0.111,1.614-0.168,2.638-0.168c1.115,0,2.039,0.057,2.774,0.168c0.736,0.111,1.322,0.248,1.771,0.4
			c0.447,0.158,0.758,0.367,0.938,0.641c0.179,0.27,0.263,0.582,0.263,0.926V595.912z"/>
		<path fill="#007DA9" d="M131.384,592.905c0,0.895-0.146,1.648-0.439,2.277c-0.304,0.621-0.695,1.137-1.186,1.535
			c-0.481,0.396-1.02,0.689-1.625,0.867c-0.593,0.178-1.198,0.271-1.79,0.271h-3.802c-1.191,0-2.245-0.127-3.146-0.367
			c-0.902-0.248-1.756-0.691-2.562-1.342c-0.806-0.646-1.61-1.523-2.424-2.639c-0.806-1.115-1.66-2.545-2.562-4.279l-26.388-49.203
			c-1.384-2.535-2.774-5.201-4.174-7.982c-1.404-2.795-2.705-5.496-3.916-8.129H77.24c0.093,3.209,0.158,6.484,0.2,9.83
			c0.048,3.34,0.075,6.666,0.075,9.955v52.213c0,0.316-0.104,0.611-0.289,0.908c-0.188,0.285-0.504,0.502-0.95,0.668
			c-0.454,0.154-1.033,0.283-1.764,0.398c-0.729,0.109-1.659,0.17-2.781,0.17c-1.137,0-2.065-0.061-2.79-0.17
			c-0.735-0.115-1.309-0.244-1.734-0.398c-0.414-0.166-0.729-0.383-0.909-0.668c-0.19-0.297-0.289-0.592-0.289-0.908v-79.816
			c0-1.785,0.51-3.047,1.516-3.809c1.02-0.76,2.122-1.139,3.318-1.139h5.66c1.329,0,2.445,0.104,3.342,0.338
			c0.899,0.219,1.699,0.588,2.415,1.096c0.713,0.51,1.405,1.229,2.066,2.145c0.667,0.916,1.363,2.064,2.1,3.445l20.287,37.967
			c1.246,2.312,2.458,4.576,3.621,6.787c1.164,2.209,2.28,4.383,3.361,6.52c1.08,2.139,2.135,4.242,3.194,6.312
			c1.054,2.074,2.101,4.158,3.139,6.256h0.062c-0.084-3.525-0.139-7.189-0.172-10.998c-0.021-3.814-0.027-7.471-0.027-11v-46.932
			c0-0.311,0.097-0.6,0.281-0.859c0.188-0.27,0.505-0.506,0.944-0.715c0.453-0.193,1.038-0.328,1.776-0.422
			c0.723-0.094,1.679-0.143,2.851-0.143c1.033,0,1.928,0.049,2.679,0.143s1.336,0.229,1.771,0.422
			c0.42,0.209,0.729,0.445,0.916,0.715c0.191,0.262,0.274,0.551,0.274,0.859L131.384,592.905L131.384,592.905z"/>
		<path fill="#007DA9" d="M208.604,516.096c0,0.846-0.049,1.582-0.139,2.213c-0.083,0.621-0.233,1.117-0.435,1.498
			c-0.192,0.377-0.453,0.656-0.729,0.836c-0.298,0.182-0.62,0.258-0.978,0.258h-24.337v75.012c0,0.361-0.089,0.67-0.254,0.943
			c-0.192,0.258-0.49,0.469-0.95,0.635c-0.439,0.154-1.026,0.281-1.771,0.398c-0.73,0.109-1.652,0.168-2.768,0.168
			c-1.074,0-1.984-0.059-2.748-0.168c-0.758-0.117-1.355-0.244-1.798-0.398c-0.455-0.166-0.764-0.377-0.938-0.635
			c-0.179-0.273-0.27-0.582-0.27-0.943v-75.012h-24.334c-0.358,0-0.675-0.076-0.965-0.258c-0.288-0.18-0.53-0.459-0.701-0.836
			c-0.187-0.381-0.324-0.877-0.44-1.498c-0.116-0.631-0.158-1.367-0.158-2.213c0-0.85,0.042-1.594,0.158-2.24
			c0.116-0.645,0.255-1.168,0.44-1.568c0.171-0.408,0.413-0.688,0.701-0.873c0.29-0.182,0.605-0.266,0.965-0.266h60.164
			c0.356,0,0.68,0.084,0.977,0.266c0.276,0.188,0.537,0.465,0.729,0.873c0.2,0.4,0.352,0.924,0.435,1.568
			C208.556,514.502,208.604,515.246,208.604,516.096z"/>
		<path fill="#007DA9" d="M269.229,592.905c0,0.801-0.048,1.504-0.131,2.107c-0.091,0.602-0.247,1.1-0.461,1.506
			c-0.229,0.398-0.49,0.684-0.778,0.863c-0.289,0.184-0.612,0.275-0.965,0.275h-41.516c-1.025,0-1.99-0.348-2.905-1.035
			c-0.915-0.701-1.37-1.91-1.37-3.646v-77.148c0-1.736,0.455-2.947,1.37-3.637c0.915-0.695,1.88-1.041,2.905-1.041h41.047
			c0.358,0,0.676,0.084,0.965,0.266c0.296,0.188,0.529,0.465,0.71,0.873c0.173,0.4,0.322,0.9,0.434,1.502
			c0.104,0.607,0.172,1.355,0.172,2.238c0,0.807-0.067,1.516-0.172,2.111c-0.11,0.598-0.261,1.092-0.434,1.459
			c-0.181,0.391-0.414,0.668-0.71,0.844c-0.289,0.176-0.605,0.268-0.965,0.268h-33.829v27.143h29.011c0.364,0,0.688,0.1,0.97,0.301
			c0.296,0.195,0.537,0.486,0.744,0.836c0.193,0.365,0.337,0.854,0.428,1.473c0.089,0.621,0.138,1.354,0.138,2.201
			c0,0.805-0.049,1.498-0.138,2.074c-0.091,0.584-0.233,1.051-0.428,1.404c-0.207,0.354-0.448,0.607-0.744,0.768
			c-0.281,0.15-0.604,0.229-0.97,0.229h-29.011v30.959h34.298c0.353,0,0.676,0.096,0.965,0.262c0.288,0.188,0.551,0.459,0.778,0.84
			c0.214,0.383,0.37,0.867,0.461,1.471C269.181,591.262,269.229,592.022,269.229,592.905z"/>
		<path fill="#007DA9" d="M332.807,592.631c0,0.895-0.04,1.643-0.132,2.248c-0.09,0.6-0.232,1.115-0.438,1.539
			c-0.193,0.424-0.441,0.736-0.737,0.93c-0.289,0.199-0.627,0.309-1.025,0.309H292.23c-1.021,0-1.991-0.346-2.906-1.035
			c-0.909-0.701-1.371-1.908-1.371-3.645v-80.096c0-0.344,0.09-0.656,0.262-0.926c0.188-0.271,0.489-0.48,0.943-0.641
			c0.441-0.152,1.047-0.289,1.805-0.4s1.674-0.168,2.74-0.168c1.115,0,2.038,0.057,2.771,0.168c0.739,0.111,1.333,0.248,1.772,0.4
			c0.447,0.158,0.758,0.367,0.938,0.641c0.173,0.27,0.262,0.582,0.262,0.926v74.812h31.028c0.398,0,0.736,0.094,1.025,0.299
			c0.296,0.203,0.544,0.494,0.737,0.869c0.206,0.379,0.35,0.881,0.438,1.508C332.767,590.987,332.807,591.752,332.807,592.631z"/>
		<path fill="#007DA9" d="M390.36,592.631c0,0.895-0.049,1.643-0.138,2.248c-0.083,0.6-0.229,1.115-0.429,1.539
			c-0.198,0.424-0.439,0.736-0.735,0.93c-0.29,0.199-0.634,0.309-1.033,0.309h-38.244c-1.021,0-1.997-0.346-2.906-1.035
			c-0.909-0.701-1.37-1.908-1.37-3.645v-80.096c0-0.344,0.091-0.656,0.27-0.926c0.172-0.271,0.489-0.48,0.93-0.641
			c0.454-0.152,1.059-0.289,1.812-0.4c0.758-0.111,1.67-0.168,2.743-0.168c1.106,0,2.035,0.057,2.772,0.168
			c0.736,0.111,1.321,0.248,1.775,0.4c0.435,0.158,0.751,0.367,0.931,0.641c0.179,0.27,0.262,0.582,0.262,0.926v74.812h31.027
			c0.399,0,0.743,0.094,1.033,0.299c0.296,0.203,0.537,0.494,0.735,0.869c0.2,0.379,0.346,0.881,0.429,1.508
			C390.312,590.987,390.36,591.752,390.36,592.631z"/>
		<path fill="#007DA9" d="M414.564,595.912c0,0.361-0.09,0.67-0.269,0.943c-0.18,0.258-0.489,0.469-0.931,0.635
			c-0.446,0.154-1.04,0.281-1.776,0.398c-0.737,0.109-1.659,0.168-2.773,0.168c-1.074,0-1.984-0.059-2.74-0.168
			c-0.758-0.117-1.363-0.244-1.806-0.398c-0.447-0.166-0.757-0.377-0.938-0.635c-0.185-0.273-0.261-0.582-0.261-0.943v-83.031
			c0-0.344,0.09-0.656,0.297-0.926c0.199-0.271,0.53-0.48,1.005-0.641c0.461-0.152,1.067-0.289,1.806-0.4
			c0.729-0.111,1.61-0.168,2.638-0.168c1.114,0,2.036,0.057,2.773,0.168c0.736,0.111,1.33,0.248,1.776,0.4
			c0.44,0.158,0.751,0.367,0.931,0.641c0.179,0.27,0.269,0.582,0.269,0.926V595.912L414.564,595.912z"/>
		<path fill="#007DA9" d="M502.533,522.92c0,0.84-0.041,1.584-0.125,2.234c-0.096,0.648-0.227,1.182-0.412,1.605
			c-0.18,0.42-0.395,0.727-0.662,0.895c-0.27,0.188-0.557,0.275-0.867,0.275c-0.537,0-1.432-0.426-2.68-1.273
			c-1.244-0.84-2.91-1.771-5.008-2.811c-2.098-1.018-4.604-1.951-7.52-2.793c-2.924-0.861-6.389-1.277-10.396-1.277
			c-4.77,0-9.055,0.867-12.836,2.605c-3.793,1.736-6.996,4.146-9.627,7.221c-2.629,3.074-4.645,6.721-6.051,10.959
			c-1.4,4.23-2.107,8.824-2.107,13.773c0,5.521,0.771,10.434,2.307,14.707c1.537,4.279,3.672,7.891,6.391,10.822
			c2.713,2.949,5.957,5.18,9.717,6.691c3.771,1.516,7.904,2.273,12.402,2.273c2.682,0,5.377-0.322,8.125-0.971
			c2.74-0.648,5.295-1.621,7.656-2.9v-25.211h-20.061c-0.756,0-1.328-0.367-1.699-1.133c-0.385-0.758-0.572-1.941-0.572-3.549
			c0-0.844,0.043-1.564,0.131-2.174c0.09-0.6,0.246-1.094,0.441-1.463c0.191-0.381,0.434-0.664,0.701-0.836
			c0.264-0.18,0.6-0.27,0.998-0.27h27.477c0.496,0,0.979,0.09,1.473,0.27c0.49,0.172,0.939,0.443,1.336,0.803
			c0.4,0.354,0.711,0.846,0.932,1.463c0.229,0.629,0.344,1.342,0.344,2.135v32.963c0,1.16-0.207,2.168-0.605,3.01
			c-0.398,0.844-1.246,1.598-2.535,2.234c-1.301,0.656-2.967,1.354-5.018,2.113c-2.053,0.76-4.168,1.404-6.35,1.938
			c-2.189,0.531-4.395,0.936-6.619,1.203c-2.23,0.264-4.439,0.404-6.623,0.404c-6.68,0-12.656-1.039-17.916-3.113
			c-5.25-2.07-9.697-5.023-13.326-8.854c-3.643-3.836-6.416-8.422-8.326-13.766c-1.912-5.354-2.877-11.33-2.877-17.922
			c0-6.863,1.033-13.086,3.105-18.645c2.072-5.572,4.992-10.32,8.76-14.248c3.766-3.918,8.291-6.965,13.57-9.123
			c5.283-2.164,11.129-3.244,17.539-3.244c3.307,0,6.398,0.289,9.303,0.867c2.893,0.584,5.469,1.264,7.721,2.047
			c2.252,0.768,4.139,1.625,5.682,2.539s2.596,1.662,3.174,2.238c0.586,0.57,0.979,1.242,1.205,2
			C502.422,520.397,502.533,521.485,502.533,522.92z"/>
		<path fill="#007DA9" d="M572.054,592.905c0,0.801-0.043,1.504-0.123,2.107c-0.098,0.602-0.25,1.1-0.471,1.506
			c-0.232,0.398-0.486,0.684-0.775,0.863c-0.285,0.184-0.607,0.275-0.965,0.275h-41.51c-1.031,0-1.996-0.348-2.916-1.035
			c-0.904-0.701-1.373-1.91-1.373-3.646v-77.148c0-1.736,0.469-2.947,1.373-3.637c0.92-0.695,1.885-1.041,2.916-1.041h41.039
			c0.354,0,0.676,0.084,0.967,0.266c0.289,0.188,0.521,0.465,0.707,0.873c0.174,0.4,0.318,0.9,0.436,1.502
			c0.115,0.607,0.166,1.355,0.166,2.238c0,0.807-0.051,1.516-0.166,2.111c-0.117,0.598-0.262,1.092-0.436,1.459
			c-0.186,0.391-0.418,0.668-0.707,0.844c-0.291,0.176-0.613,0.268-0.967,0.268h-33.822v27.143h29.018
			c0.346,0,0.668,0.1,0.957,0.301c0.297,0.195,0.545,0.486,0.738,0.836c0.205,0.365,0.344,0.854,0.432,1.473
			c0.092,0.621,0.141,1.354,0.141,2.201c0,0.805-0.049,1.498-0.141,2.074c-0.088,0.584-0.227,1.051-0.432,1.404
			c-0.193,0.354-0.441,0.607-0.738,0.768c-0.289,0.15-0.611,0.229-0.957,0.229h-29.018v30.959h34.293
			c0.355,0,0.68,0.096,0.965,0.262c0.289,0.188,0.543,0.459,0.775,0.84c0.221,0.383,0.373,0.867,0.471,1.471
			C572.011,591.262,572.054,592.022,572.054,592.905z"/>
		<path fill="#007DA9" d="M656.152,592.905c0,0.895-0.145,1.648-0.439,2.277c-0.305,0.621-0.701,1.137-1.178,1.535
			c-0.488,0.396-1.025,0.689-1.633,0.867c-0.6,0.178-1.191,0.271-1.791,0.271h-3.801c-1.199,0-2.246-0.127-3.146-0.367
			c-0.908-0.248-1.756-0.691-2.566-1.342c-0.799-0.646-1.611-1.523-2.418-2.639c-0.805-1.115-1.66-2.545-2.562-4.279l-26.393-49.203
			c-1.377-2.535-2.764-5.201-4.168-7.982c-1.396-2.795-2.705-5.496-3.918-8.129h-0.131c0.094,3.209,0.152,6.484,0.199,9.83
			c0.049,3.34,0.068,6.666,0.068,9.955v52.213c0,0.316-0.096,0.611-0.281,0.908c-0.191,0.285-0.504,0.502-0.957,0.668
			c-0.441,0.154-1.033,0.283-1.764,0.398c-0.723,0.109-1.652,0.17-2.787,0.17c-1.129,0-2.053-0.061-2.775-0.17
			c-0.736-0.115-1.309-0.244-1.734-0.398c-0.422-0.166-0.73-0.383-0.916-0.668c-0.188-0.297-0.275-0.592-0.275-0.908v-79.816
			c0-1.785,0.502-3.047,1.508-3.809c1.02-0.76,2.121-1.139,3.312-1.139h5.66c1.344,0,2.447,0.104,3.348,0.338
			c0.895,0.219,1.707,0.588,2.416,1.096c0.709,0.51,1.398,1.229,2.061,2.145c0.674,0.916,1.377,2.064,2.113,3.445l20.277,37.967
			c1.248,2.312,2.459,4.576,3.619,6.787c1.168,2.209,2.283,4.383,3.363,6.52c1.074,2.139,2.143,4.242,3.195,6.312
			c1.055,2.074,2.102,4.158,3.127,6.256h0.068c-0.082-3.525-0.139-7.189-0.166-10.998c-0.02-3.814-0.027-7.471-0.027-11v-46.932
			c0-0.311,0.09-0.6,0.283-0.859c0.188-0.27,0.502-0.506,0.943-0.715c0.453-0.193,1.041-0.328,1.775-0.422
			c0.723-0.094,1.68-0.143,2.852-0.143c1.025,0,1.928,0.049,2.68,0.143c0.75,0.094,1.342,0.229,1.762,0.422
			c0.428,0.209,0.73,0.445,0.924,0.715c0.18,0.262,0.275,0.551,0.275,0.859v79.82H656.152z"/>
		<path fill="#007DA9" d="M736.91,585.416c0,0.713-0.02,1.334-0.066,1.879c-0.043,0.527-0.131,0.996-0.23,1.396
			c-0.113,0.402-0.26,0.762-0.438,1.072c-0.182,0.309-0.488,0.691-0.938,1.135c-0.447,0.447-1.385,1.131-2.811,2.037
			c-1.416,0.922-3.195,1.812-5.311,2.678c-2.119,0.875-4.551,1.604-7.291,2.207c-2.748,0.604-5.742,0.898-8.992,0.898
			c-5.609,0-10.682-0.938-15.203-2.807c-4.525-1.871-8.381-4.635-11.568-8.287c-3.184-3.658-5.633-8.168-7.342-13.541
			c-1.721-5.367-2.582-11.549-2.582-18.547c0-7.18,0.93-13.57,2.773-19.189c1.848-5.615,4.436-10.373,7.787-14.273
			c3.344-3.893,7.344-6.869,11.998-8.922c4.66-2.049,9.818-3.068,15.479-3.068c2.494,0,4.918,0.23,7.279,0.697
			c2.375,0.469,4.557,1.057,6.555,1.773c2.008,0.713,3.795,1.533,5.352,2.465c1.557,0.941,2.645,1.717,3.242,2.314
			c0.6,0.602,0.986,1.059,1.172,1.377c0.172,0.303,0.316,0.672,0.434,1.096c0.109,0.422,0.193,0.928,0.27,1.502
			c0.062,0.586,0.104,1.268,0.104,2.074c0,0.896-0.049,1.646-0.145,2.27c-0.084,0.625-0.221,1.152-0.395,1.574
			c-0.186,0.414-0.398,0.727-0.641,0.928c-0.254,0.205-0.557,0.309-0.914,0.309c-0.627,0-1.486-0.439-2.615-1.301
			c-1.123-0.875-2.562-1.826-4.34-2.877c-1.764-1.045-3.918-2.014-6.451-2.871c-2.527-0.873-5.564-1.311-9.105-1.311
			c-3.85,0-7.354,0.771-10.516,2.316c-3.166,1.529-5.865,3.799-8.098,6.775c-2.244,2.988-3.979,6.631-5.205,10.928
			c-1.24,4.311-1.854,9.229-1.854,14.74c0,5.484,0.592,10.33,1.775,14.543c1.191,4.205,2.889,7.729,5.104,10.562
			c2.225,2.83,4.951,4.969,8.174,6.416c3.225,1.451,6.873,2.174,10.957,2.174c3.443,0,6.459-0.426,9.033-1.268
			c2.582-0.855,4.779-1.791,6.59-2.848c1.812-1.035,3.303-1.992,4.471-2.836c1.154-0.852,2.08-1.273,2.754-1.273
			c0.316,0,0.592,0.07,0.807,0.199c0.219,0.141,0.408,0.396,0.543,0.77c0.125,0.381,0.232,0.906,0.297,1.574
			C736.877,583.545,736.91,584.395,736.91,585.416z"/>
		<path fill="#007DA9" d="M800.281,592.905c0,0.801-0.041,1.504-0.135,2.107c-0.09,0.602-0.242,1.1-0.469,1.506
			c-0.221,0.398-0.477,0.684-0.766,0.863c-0.291,0.184-0.613,0.275-0.971,0.275h-41.51c-1.021,0-1.996-0.348-2.906-1.035
			c-0.914-0.701-1.371-1.91-1.371-3.646v-77.148c0-1.736,0.457-2.947,1.371-3.637c0.91-0.695,1.885-1.041,2.906-1.041h41.047
			c0.352,0,0.676,0.084,0.965,0.266c0.289,0.188,0.518,0.465,0.709,0.873c0.166,0.4,0.318,0.9,0.428,1.502
			c0.115,0.607,0.174,1.355,0.174,2.238c0,0.807-0.059,1.516-0.174,2.111c-0.109,0.598-0.262,1.092-0.428,1.459
			c-0.191,0.391-0.42,0.668-0.709,0.844s-0.613,0.268-0.965,0.268h-33.83v27.143h29.01c0.361,0,0.678,0.1,0.965,0.301
			c0.297,0.195,0.537,0.486,0.748,0.836c0.201,0.365,0.334,0.854,0.424,1.473c0.096,0.621,0.139,1.354,0.139,2.201
			c0,0.805-0.043,1.498-0.139,2.074c-0.09,0.584-0.223,1.051-0.424,1.404c-0.211,0.354-0.451,0.607-0.748,0.768
			c-0.287,0.15-0.604,0.229-0.965,0.229h-29.01v30.959h34.293c0.357,0,0.68,0.096,0.971,0.262c0.289,0.188,0.545,0.459,0.766,0.84
			c0.227,0.383,0.379,0.867,0.469,1.471C800.24,591.262,800.281,592.022,800.281,592.905z"/>
	</g>
	<path fill="#D71249" d="M78.079,24.764h-2.196c-18.965,0-44.702,9.258-44.702,32.134v33.118c0,22.875,25.737,32.137,44.71,32.137
		h2.188c18.965,0,44.697-9.262,44.697-32.137V56.897C122.777,34.022,97.044,24.764,78.079,24.764z"/>
	<path fill="#007DA9" d="M78.079,146.085h-2.196c-18.965,0-44.702,9.251-44.702,32.137v226.433c0,22.877,25.737,32.143,44.71,32.143
		h2.188c18.965,0,44.697-9.266,44.697-32.143V178.222C122.777,155.337,97.044,146.085,78.079,146.085z"/>
	<path fill="#007DA9" d="M536.586,342.16H271.763c-0.021,0-0.042-0.01-0.062-0.01c-16.855,0-30.505-13.662-30.505-30.505
		c0-0.083-0.015-0.162-0.015-0.238V149.728c0-0.027,0.015-0.051,0.015-0.051c0-16.875,13.648-30.534,30.505-30.534
		c0.021,0,0.048-0.01,0.062-0.01h140.419c22.869,0,32.13-25.73,32.13-44.701v-2.193c0-18.97-9.262-44.696-32.13-44.696H256.427
		c-59.006,0-106.836,47.84-106.836,106.851v192.507c0,59.01,47.83,106.854,106.836,106.854h280.157
		c22.875,0,32.137-25.732,32.137-44.709v-2.186C568.72,367.883,559.459,342.16,536.586,342.16z"/>
	<path fill="#007DA9" d="M778.564,27.543H500.351c-22.873,0-32.139,25.727-32.139,44.704v2.192c0,18.964,9.266,44.697,32.139,44.697
		h62.676c0.035,0,0.068,0.007,0.104,0.007c16.85,0,30.506,13.659,30.506,30.512c0,0.098,0.02,0.166,0.02,0.263V404.53
		c0,22.875,25.734,32.135,44.705,32.135h2.189c18.982,0,44.703-9.26,44.703-32.135V149.673v-0.018
		c0-16.853,13.662-30.512,30.506-30.512c0.041,0,0.076-0.007,0.117-0.007h62.689c22.875,0,32.143-25.733,32.143-44.704v-2.193
		C810.707,53.269,801.439,27.543,778.564,27.543z"/>
</g>
</svg>
